HIERARCHY
ROOT Hips
{
  OFFSET 53.7595 94.3269 8.10058
  CHANNELS 6 Xposition Yposition Zposition Zrotation Xrotation Yrotation
  JOINT spine
  {
    OFFSET 0 7.80059 0.448573
    CHANNELS 3 Zrotation Xrotation Yrotation
    JOINT spine1
    {
      OFFSET 0 10.1364 0
      CHANNELS 3 Zrotation Xrotation Yrotation
      JOINT spine2
      {
        OFFSET 0 9.71251 0
        CHANNELS 3 Zrotation Xrotation Yrotation
        JOINT Neck
        {
          OFFSET 0 24.9361 1.18887
          CHANNELS 3 Zrotation Xrotation Yrotation
          JOINT Head
          {
            OFFSET 0 7.53384 0
            CHANNELS 3 Zrotation Xrotation Yrotation
            End Site
            {
              OFFSET 0 18.2361 -6.01402
            }
          }
        }
        JOINT RightShoulder
        {
          OFFSET -4.08965 10.4888 -0.569457
          CHANNELS 3 Zrotation Xrotation Yrotation
          JOINT RightArm
          {
            OFFSET 0 13.757 0
            CHANNELS 3 Zrotation Xrotation Yrotation
            JOINT RightArmRoll
            {
              OFFSET 0 6.94478 0
              CHANNELS 3 Zrotation Xrotation Yrotation
              JOINT RightForeArm
              {
                OFFSET 0 20.2277 0
                CHANNELS 3 Zrotation Xrotation Yrotation
                JOINT RightForeArmRoll
                {
                  OFFSET 0 7.79312 0
                  CHANNELS 3 Zrotation Xrotation Yrotation
                  JOINT RightHand
                  {
                    OFFSET 0 15.6391 0
                    CHANNELS 3 Zrotation Xrotation Yrotation
                    End Site
                    {
                      OFFSET 0 0 0
                    }
                  }
                }
              }
            }
          }
        }
        JOINT LeftShoulder
        {
          OFFSET 4.08965 10.4888 -0.569457
          CHANNELS 3 Zrotation Xrotation Yrotation
          JOINT LeftArm
          {
            OFFSET 0 13.757 0
            CHANNELS 3 Zrotation Xrotation Yrotation
            JOINT LeftArmRoll
            {
              OFFSET 0 6.94478 0
              CHANNELS 3 Zrotation Xrotation Yrotation
              JOINT LeftForeArm
              {
                OFFSET 0 20.2277 0
                CHANNELS 3 Zrotation Xrotation Yrotation
                JOINT LeftForeArmRoll
                {
                  OFFSET 0 7.79312 0
                  CHANNELS 3 Zrotation Xrotation Yrotation
                  JOINT LeftHand
                  {
                    OFFSET 0 15.6391 0
                    CHANNELS 3 Zrotation Xrotation Yrotation
                    End Site
                    {
                      OFFSET 0 0 0
                    }
                  }
                }
              }
            }
          }
        }
      }
    }
  }
  JOINT RightUpLeg
  {
    OFFSET -6.91416 -1.26788 -1.06358
    CHANNELS 3 Zrotation Xrotation Yrotation
    JOINT RightUpLegRoll
    {
      OFFSET 0 18.3378 0
      CHANNELS 3 Zrotation Xrotation Yrotation
      JOINT RightLeg
      {
        OFFSET 0 -22.7085 0
        CHANNELS 3 Zrotation Xrotation Yrotation
        JOINT RightLegRoll
        {
          OFFSET 0 22.7828 0
          CHANNELS 3 Zrotation Xrotation Yrotation
          JOINT RightFoot
          {
            OFFSET 0 18.9629 0
            CHANNELS 3 Zrotation Xrotation Yrotation
            JOINT RightToeBase
            {
              OFFSET 0 15.852 0
              CHANNELS 3 Zrotation Xrotation Yrotation
              End Site
              {
                OFFSET 0.00671906 7.67701 -0.884892
              }
            }
          }
        }
      }
    }
  }
  JOINT LeftUpLeg
  {
    OFFSET 6.91416 -1.26788 -1.06358
    CHANNELS 3 Zrotation Xrotation Yrotation
    JOINT LeftUpLegRoll
    {
      OFFSET 0 18.3379 0
      CHANNELS 3 Zrotation Xrotation Yrotation
      JOINT LeftLeg
      {
        OFFSET 0 22.7084 0
        CHANNELS 3 Zrotation Xrotation Yrotation
        JOINT LeftLegRoll
        {
          OFFSET 0 22.9934 0
          CHANNELS 3 Zrotation Xrotation Yrotation
          JOINT LeftFoot
          {
            OFFSET 0 18.7522 0
            CHANNELS 3 Zrotation Xrotation Yrotation
            JOINT LeftToeBase
            {
              OFFSET 0 15.852 0
              CHANNELS 3 Zrotation Xrotation Yrotation
              End Site
              {
                OFFSET -0.030112 7.67701 -0.884893
              }
            }
          }
        }
      }
    }
  }
}
MOTION
Frames: 12
Frame Time: 0.00208333
53.1193 93.9272 13.2017 -0.468439 -4.10776 1.37253 0.0522983 -0.15645 0.0987289 0.110114 3.69 0.190705 0.107977 5.33507 0.18905 -11.3501 18.4215 0.5391 9.23331 -16.2652 -0.754463 74.6712 -5.02939 -4.06145 97.4912 10.7087 12.7748 -6.56457e-006 8.94001e-007 -2.3262e-006 11.3213 18.965 -3.08112 -1.57795e-005 -3.05356e-006 -3.00001 8.02894 -4.95148 0.69771 -64.6517 -2.50428 2.09081 -107.665 1.04861 -13.8321 2.5475e-005 -1.14457e-006 -5.88214e-007 -4.32427 21.2564 2.05115 4.44229e-006 -4.94735e-006 3.00001 -8.02974 -4.95153 -0.697703 179.435 1.82008 -1.26959 180 7.0155e-015 178.935 179.777 14.0657 179.281 3.26372e-006 1.72386e-006 0.244927 -20.805 71.4098 22.7822 8.13485 25.2328 -3.48704 179.207 0.0932601 7.20136 4.54188e-006 -4.6773e-006 -1.47137 -4.60391 -13.6728 -0.313824 -6.61618e-006 -3.50849e-006 -0.341484 26.9281 72.6715 -24.989 -8.12713 25.239 3.48364 
53.1104 93.9164 13.1648 -0.468774 -4.09455 1.37877 0.0519955 -0.156333 0.0984993 0.109177 3.69023 0.190593 0.107041 5.3353 0.18895 -11.3468 18.3945 0.527127 9.25719 -16.2441 -0.758748 74.6652 -5.0298 -4.06132 97.5026 10.7028 12.7512 -6.56457e-006 8.94001e-007 -2.3262e-006 11.3316 18.9985 -3.0869 -1.57795e-005 -3.05356e-006 -3.00001 8.02894 -4.95148 0.69771 -64.6505 -2.50149 2.08918 -107.657 1.05407 -13.7938 2.5475e-005 -1.14457e-006 -5.88214e-007 -4.34805 21.3226 2.06185 4.44229e-006 -4.94735e-006 3.00001 -8.02974 -4.95153 -0.697703 179.437 1.83325 -1.26937 180 7.0155e-015 178.935 179.772 14.069 179.282 3.26372e-006 1.72386e-006 0.24526 -20.8077 71.4129 22.7857 8.13485 25.2328 -3.48704 179.21 0.105347 7.20031 4.54188e-006 -4.6773e-006 -1.47141 -4.60367 -13.675 -0.313942 -6.61618e-006 -3.50849e-006 -0.341656 26.9328 72.6743 -24.9931 -8.12713 25.239 3.48364 
53.1024 93.9206 13.2127 -0.469087 -4.08134 1.38502 0.0516867 -0.156245 0.0982488 0.108228 3.69041 0.190455 0.106092 5.33548 0.188823 -11.3434 18.3673 0.515284 9.28096 -16.2225 -0.762902 74.6595 -5.03022 -4.0612 97.5139 10.6966 12.7274 -6.56457e-006 8.94001e-007 -2.3262e-006 11.3422 19.0319 -3.0927 -1.57795e-005 -3.05356e-006 -3.00001 8.02894 -4.95148 0.69771 -64.649 -2.49885 2.08762 -107.651 1.05989 -13.756 2.5475e-005 -1.14457e-006 -5.88214e-007 -4.37143 21.388 2.07241 4.44229e-006 -4.94735e-006 3.00001 -8.02974 -4.95153 -0.697703 179.439 1.84684 -1.26907 180 7.0155e-015 178.935 179.767 14.0728 179.282 3.26372e-006 1.72386e-006 0.245624 -20.8105 71.4161 22.7892 8.13485 25.2328 -3.48704 179.213 0.117476 7.19931 4.54188e-006 -4.6773e-006 -1.47146 -4.60345 -13.6774 -0.314073 -6.61618e-006 -3.50849e-006 -0.34184 26.938 72.6773 -24.9973 -8.12713 25.239 3.48364 
53.0982 93.9217 13.183 -0.469386 -4.06813 1.39129 0.0513736 -0.156179 0.0979836 0.107269 3.69054 0.190299 0.105134 5.33561 0.188678 -11.3398 18.3398 0.503532 9.30464 -16.2006 -0.766963 74.6539 -5.03064 -4.06109 97.525 10.6903 12.7037 -6.56457e-006 8.94001e-007 -2.3262e-006 11.3529 19.0654 -3.09853 -1.57795e-005 -3.05356e-006 -3.00001 8.02894 -4.95148 0.69771 -64.6473 -2.49633 2.0861 -107.644 1.06595 -13.7184 2.5475e-005 -1.14457e-006 -5.88214e-007 -4.39452 21.4529 2.08287 4.44229e-006 -4.94735e-006 3.00001 -8.02974 -4.95153 -0.697703 179.442 1.86073 -1.26872 180 7.0155e-015 178.935 179.763 14.077 179.283 3.26372e-006 1.72386e-006 0.246009 -20.8134 71.4194 22.7929 8.13485 25.2328 -3.48704 179.216 0.129637 7.19834 4.54188e-006 -4.6773e-006 -1.47153 -4.60325 -13.6797 -0.314212 -6.61618e-006 -3.50849e-006 -0.342031 26.9434 72.6804 -25.0017 -8.12713 25.239 3.48364 
53.0898 93.9216 13.2145 -0.469679 -4.05493 1.39756 0.0510581 -0.156125 0.0977101 0.106305 3.69065 0.190132 0.104172 5.33572 0.188522 -11.3362 18.3122 0.491833 9.32827 -16.1785 -0.770971 74.6483 -5.03106 -4.06098 97.5361 10.684 12.6798 -6.56457e-006 8.94001e-007 -2.3262e-006 11.3636 19.0988 -3.10438 -1.57795e-005 -3.05356e-006 -3.00001 8.02894 -4.95148 0.69771 -64.6455 -2.49386 2.08461 -107.638 1.07216 -13.681 2.5475e-005 -1.14457e-006 -5.88214e-007 -4.41746 21.5175 2.09328 4.44229e-006 -4.94735e-006 3.00001 -8.02974 -4.95153 -0.697703 179.444 1.87479 -1.26834 180 7.0155e-015 178.935 179.758 14.0815 179.283 3.26372e-006 1.72386e-006 0.246408 -20.8163 71.4228 22.7966 8.13485 25.2328 -3.48704 179.218 0.141814 7.19741 4.54188e-006 -4.6773e-006 -1.47162 -4.60306 -13.6822 -0.314356 -6.61618e-006 -3.50849e-006 -0.342227 26.949 72.6835 -25.0061 -8.12713 25.239 3.48364 
53.0909 93.9147 13.2022 -0.469971 -4.04173 1.40384 0.050742 -0.156074 0.0974345 0.10534 3.69075 0.189963 0.103208 5.33582 0.188364 -11.3326 18.2846 0.480152 9.35189 -16.1563 -0.774965 74.6428 -5.03148 -4.06087 97.5471 10.6776 12.656 -6.56457e-006 8.94001e-007 -2.3262e-006 11.3744 19.1322 -3.11023 -1.57795e-005 -3.05356e-006 -3.00001 8.02894 -4.95148 0.69771 -64.6437 -2.49142 2.08312 -107.631 1.0784 -13.6437 2.5475e-005 -1.14457e-006 -5.88214e-007 -4.44039 21.5821 2.10368 4.44229e-006 -4.94735e-006 3.00001 -8.02974 -4.95153 -0.697703 179.446 1.8889 -1.26795 180 7.0155e-015 178.935 179.753 14.086 179.283 3.26372e-006 1.72386e-006 0.246809 -20.8192 71.4261 22.8003 8.13485 25.2328 -3.48704 179.221 0.153996 7.19647 4.54188e-006 -4.6773e-006 -1.4717 -4.60287 -13.6846 -0.314501 -6.61618e-006 -3.50849e-006 -0.342425 26.9546 72.6866 -25.0106 -8.12713 25.239 3.48364 
53.0792 93.9152 13.2256 -0.470271 -4.02853 1.41011 0.0504271 -0.156017 0.0971631 0.104378 3.69087 0.189799 0.102246 5.33594 0.18821 -11.329 18.2571 0.468449 9.37555 -16.1342 -0.778984 74.6372 -5.0319 -4.06077 97.5582 10.6712 12.6322 -6.56457e-006 8.94001e-007 -2.3262e-006 11.3851 19.1656 -3.11608 -1.57795e-005 -3.05356e-006 -3.00001 8.02894 -4.95148 0.69771 -64.642 -2.48894 2.08162 -107.625 1.08458 -13.6062 2.5475e-005 -1.14457e-006 -5.88214e-007 -4.46343 21.6468 2.11413 4.44229e-006 -4.94735e-006 3.00001 -8.02974 -4.95153 -0.697703 179.448 1.90292 -1.26758 180 7.0155e-015 178.935 179.748 14.0904 179.284 3.26372e-006 1.72386e-006 0.247205 -20.8221 71.4295 22.8041 8.13485 25.2328 -3.48704 179.224 0.166169 7.19553 4.54188e-006 -4.6773e-006 -1.47178 -4.60267 -13.687 -0.314644 -6.61618e-006 -3.50849e-006 -0.34262 26.9602 72.6898 -25.015 -8.12713 25.239 3.48364 
53.0788 93.92 13.2214 -0.470587 -4.01532 1.41637 0.0501152 -0.155944 0.0969021 0.103422 3.69101 0.189648 0.101291 5.33608 0.18807 -11.3255 18.2297 0.456687 9.39927 -16.1123 -0.783068 74.6315 -5.03232 -4.06065 97.5694 10.6649 12.6085 -6.56457e-006 8.94001e-007 -2.3262e-006 11.3958 19.199 -3.12191 -1.57795e-005 -3.05356e-006 -3.00001 8.02894 -4.95148 0.69771 -64.6404 -2.48638 2.08008 -107.618 1.09058 -13.5686 2.5475e-005 -1.14457e-006 -5.88214e-007 -4.48671 21.7119 2.12467 4.44229e-006 -4.94735e-006 3.00001 -8.02974 -4.95153 -0.697703 179.45 1.91672 -1.26724 180 7.0155e-015 178.935 179.743 14.0945 179.284 3.26372e-006 1.72386e-006 0.247584 -20.825 71.4327 22.8077 8.13485 25.2328 -3.48704 179.227 0.178321 7.19456 4.54188e-006 -4.6773e-006 -1.47185 -4.60247 -13.6894 -0.314781 -6.61618e-006 -3.50849e-006 -0.342809 26.9655 72.6928 -25.0194 -8.12713 25.239 3.48364 
53.0709 93.9209 13.2368 -0.470925 -4.00211 1.42261 0.0498082 -0.155848 0.0966579 0.102476 3.6912 0.189518 0.100346 5.33627 0.187952 -11.3222 18.2025 0.444829 9.42309 -16.0909 -0.787256 74.6257 -5.03274 -4.06053 97.5807 10.6589 12.5848 -6.56457e-006 8.94001e-007 -2.3262e-006 11.4064 19.2324 -3.12773 -1.57795e-005 -3.05356e-006 -3.00001 8.02894 -4.95148 0.69771 -64.6389 -2.4837 2.0785 -107.611 1.0963 -13.5306 2.5475e-005 -1.14457e-006 -5.88214e-007 -4.51037 21.7775 2.13535 4.44229e-006 -4.94735e-006 3.00001 -8.02974 -4.95153 -0.697703 179.452 1.93019 -1.26696 180 7.0155e-015 178.935 179.738 14.0981 179.285 3.26372e-006 1.72386e-006 0.247938 -20.8278 71.4359 22.8112 8.13485 25.2328 -3.48704 179.23 0.190438 7.19354 4.54188e-006 -4.6773e-006 -1.4719 -4.60224 -13.6917 -0.314908 -6.61618e-006 -3.50849e-006 -0.342989 26.9705 72.6958 -25.0236 -8.12713 25.239 3.48364 
53.0621 93.9208 13.2366 -0.471292 -3.9889 1.42884 0.0495079 -0.155719 0.0964366 0.101545 3.69146 0.189417 0.0994152 5.33653 0.187862 -11.319 18.1757 0.432836 9.44705 -16.0701 -0.791587 74.6197 -5.03316 -4.0604 97.5921 10.653 12.5612 -6.56457e-006 8.94001e-007 -2.3262e-006 11.4167 19.2659 -3.13352 -1.57795e-005 -3.05356e-006 -3.00001 8.02894 -4.95148 0.69771 -64.6378 -2.48085 2.07685 -107.604 1.10162 -13.4922 2.5475e-005 -1.14457e-006 -5.88214e-007 -4.53454 21.8439 2.14621 4.44229e-006 -4.94735e-006 3.00001 -8.02974 -4.95153 -0.697703 179.454 1.94318 -1.26677 180 7.0155e-015 178.935 179.733 14.1012 179.285 3.26372e-006 1.72386e-006 0.248258 -20.8304 71.4389 22.8146 8.13485 25.2328 -3.48704 179.233 0.202508 7.19247 4.54188e-006 -4.6773e-006 -1.47192 -4.60199 -13.6939 -0.315022 -6.61618e-006 -3.50849e-006 -0.343157 26.9752 72.6986 -25.0276 -8.12713 25.239 3.48364 
53.0689 93.8753 13.2123 -0.471697 -3.97567 1.43505 0.0492162 -0.155548 0.0962447 0.100631 3.69181 0.189352 0.0985018 5.33687 0.187809 -11.3161 18.1492 0.420672 9.47119 -16.05 -0.7961 74.6135 -5.03358 -4.06025 97.6038 10.6475 12.5377 -6.56457e-006 8.94001e-007 -2.3262e-006 11.4269 19.2995 -3.13927 -1.57795e-005 -3.05356e-006 -3.00001 8.02894 -4.95148 0.69771 -64.637 -2.47777 2.0751 -107.596 1.10645 -13.4532 2.5475e-005 -1.14457e-006 -5.88214e-007 -4.55936 21.9114 2.15731 4.44229e-006 -4.94735e-006 3.00001 -8.02974 -4.95153 -0.697703 179.457 1.95558 -1.26668 180 7.0155e-015 178.935 179.729 14.1034 179.286 3.26372e-006 1.72386e-006 0.248534 -20.833 71.4418 22.8178 8.13485 25.2328 -3.48704 179.237 0.214517 7.19132 4.54188e-006 -4.6773e-006 -1.47191 -4.60169 -13.6961 -0.315119 -6.61618e-006 -3.50849e-006 -0.343309 26.9792 72.7012 -25.0312 -8.12713 25.239 3.48364 
53.0652 93.8759 13.2238 -0.472146 -3.96244 1.44122 0.0489349 -0.155326 0.0960882 0.0997398 3.69225 0.189332 0.0976099 5.33732 0.187801 -11.3135 18.1233 0.408298 9.49554 -16.0307 -0.800835 74.6069 -5.034 -4.06008 97.6157 10.6424 12.5144 -6.56457e-006 8.94001e-007 -2.3262e-006 11.4367 19.3331 -3.14497 -1.57795e-005 -3.05356e-006 -3.00001 8.02894 -4.95148 0.69771 -64.6367 -2.47443 2.07325 -107.587 1.11068 -13.4136 2.5475e-005 -1.14457e-006 -5.88214e-007 -4.58495 21.98 2.1687 4.44229e-006 -4.94735e-006 3.00001 -8.02974 -4.95153 -0.697703 179.459 1.96725 -1.26671 180 7.0155e-015 178.935 179.724 14.1047 179.287 3.26372e-006 1.72386e-006 0.248757 -20.8354 71.4445 22.8208 8.13485 25.2328 -3.48704 179.24 0.226452 7.19008 4.54188e-006 -4.6773e-006 -1.47186 -4.60136 -13.6981 -0.315195 -6.61618e-006 -3.50849e-006 -0.343441 26.9825 72.7037 -25.0346 -8.12713 25.239 3.48364 
